<svg xmlns="http://www.w3.org/2000/svg" xmlns:rdkit="http://www.rdkit.org/xml" xmlns:xlink="http://www.w3.org/1999/xlink" version="1.1" baseProfile="full" xml:space="preserve" width="300px" height="300px" viewBox="0 0 300 300">
<!-- END OF HEADER -->
<rect style="opacity:1.0;fill:#FFFFFF;stroke:none" width="300" height="300" x="0" y="0"> </rect>
<path class="bond-0" d="M 37.3313,219.23 L 59.6921,203.072" style="fill:none;fill-rule:evenodd;stroke:#000000;stroke-width:1.0px;stroke-linecap:butt;stroke-linejoin:miter;stroke-opacity:1"/>
<path class="bond-1" d="M 151.948,165.885 L 151.014,149.39 L 145.635,150.617 Z" style="fill:#000000;fill-rule:evenodd;fill-opacity:1;stroke:#000000;stroke-width:1px;stroke-linecap:butt;stroke-linejoin:miter;stroke-opacity:1;"/>
<path class="bond-2" d="M 219.031,117.412 L 221.861,89.8319 L 216.343,89.8176 Z" style="fill:#000000;fill-rule:evenodd;fill-opacity:1;stroke:#000000;stroke-width:1px;stroke-linecap:butt;stroke-linejoin:miter;stroke-opacity:1;"/>
<path class="bond-3" d="M 248.813,150.662 L 262.669,126.806" style="fill:none;fill-rule:evenodd;stroke:#000000;stroke-width:1.0px;stroke-linecap:butt;stroke-linejoin:miter;stroke-opacity:1"/>
<path class="bond-4" d="M 248.813,150.662 L 221.843,144.856" style="fill:none;fill-rule:evenodd;stroke:#000000;stroke-width:1.0px;stroke-linecap:butt;stroke-linejoin:miter;stroke-opacity:1"/>
<path class="bond-5" d="M 262.669,126.806 L 244.262,106.257" style="fill:none;fill-rule:evenodd;stroke:#000000;stroke-width:1.0px;stroke-linecap:butt;stroke-linejoin:miter;stroke-opacity:1"/>
<path class="bond-6" d="M 104.414,170.757 L 126.775,154.599" style="fill:none;fill-rule:evenodd;stroke:#000000;stroke-width:1.0px;stroke-linecap:butt;stroke-linejoin:miter;stroke-opacity:1"/>
<path class="bond-7" d="M 104.414,170.757 L 107.226,198.201" style="fill:none;fill-rule:evenodd;stroke:#000000;stroke-width:1.0px;stroke-linecap:butt;stroke-linejoin:miter;stroke-opacity:1"/>
<path class="bond-8" d="M 171.496,122.284 L 193.857,106.126" style="fill:none;fill-rule:evenodd;stroke:#000000;stroke-width:1.0px;stroke-linecap:butt;stroke-linejoin:miter;stroke-opacity:1"/>
<path class="bond-9" d="M 171.496,122.284 L 174.309,149.728" style="fill:none;fill-rule:evenodd;stroke:#000000;stroke-width:1.0px;stroke-linecap:butt;stroke-linejoin:miter;stroke-opacity:1"/>
<path class="bond-10" d="M 126.775,154.599 L 151.948,165.885" style="fill:none;fill-rule:evenodd;stroke:#000000;stroke-width:1.0px;stroke-linecap:butt;stroke-linejoin:miter;stroke-opacity:1"/>
<path class="bond-11" d="M 193.857,106.126 L 219.031,117.412" style="fill:none;fill-rule:evenodd;stroke:#000000;stroke-width:1.0px;stroke-linecap:butt;stroke-linejoin:miter;stroke-opacity:1"/>
<path class="bond-12" d="M 132.4,209.487 L 154.761,193.329" style="fill:none;fill-rule:evenodd;stroke:#000000;stroke-width:1.0px;stroke-linecap:butt;stroke-linejoin:miter;stroke-opacity:1"/>
<path class="bond-13" d="M 132.4,209.487 L 107.226,198.201" style="fill:none;fill-rule:evenodd;stroke:#000000;stroke-width:1.0px;stroke-linecap:butt;stroke-linejoin:miter;stroke-opacity:1"/>
<path class="bond-14" d="M 179.934,204.615 L 154.761,193.329" style="fill:none;fill-rule:evenodd;stroke:#000000;stroke-width:1.0px;stroke-linecap:butt;stroke-linejoin:miter;stroke-opacity:1"/>
<path class="bond-15" d="M 179.934,204.615 L 202.295,188.458" style="fill:none;fill-rule:evenodd;stroke:#000000;stroke-width:1.0px;stroke-linecap:butt;stroke-linejoin:miter;stroke-opacity:1"/>
<path class="bond-16" d="M 61.3816,202.899 L 59.4786,184.33" style="fill:none;fill-rule:evenodd;stroke:#000000;stroke-width:1.0px;stroke-linecap:butt;stroke-linejoin:miter;stroke-opacity:1"/>
<path class="bond-16" d="M 58.0026,203.245 L 56.0996,184.676" style="fill:none;fill-rule:evenodd;stroke:#000000;stroke-width:1.0px;stroke-linecap:butt;stroke-linejoin:miter;stroke-opacity:1"/>
<path class="bond-17" d="M 59.6921,203.072 L 76.9375,210.804" style="fill:none;fill-rule:evenodd;stroke:#000000;stroke-width:1.0px;stroke-linecap:butt;stroke-linejoin:miter;stroke-opacity:1"/>
<path class="bond-18" d="M 154.761,193.329 L 151.948,165.885" style="fill:none;fill-rule:evenodd;stroke:#000000;stroke-width:1.0px;stroke-linecap:butt;stroke-linejoin:miter;stroke-opacity:1"/>
<path class="bond-28" d="M 154.49,199.713 L 156.32,199.525" style="fill:none;fill-rule:evenodd;stroke:#000000;stroke-width:1.0px;stroke-linecap:butt;stroke-linejoin:miter;stroke-opacity:1"/>
<path class="bond-28" d="M 154.22,206.096 L 157.879,205.721" style="fill:none;fill-rule:evenodd;stroke:#000000;stroke-width:1.0px;stroke-linecap:butt;stroke-linejoin:miter;stroke-opacity:1"/>
<path class="bond-28" d="M 153.95,212.48 L 159.439,211.917" style="fill:none;fill-rule:evenodd;stroke:#000000;stroke-width:1.0px;stroke-linecap:butt;stroke-linejoin:miter;stroke-opacity:1"/>
<path class="bond-19" d="M 107.226,198.201 L 91.0953,206.453 L 94.3268,210.925 Z" style="fill:#000000;fill-rule:evenodd;fill-opacity:1;stroke:#000000;stroke-width:1px;stroke-linecap:butt;stroke-linejoin:miter;stroke-opacity:1;"/>
<path class="bond-20" d="M 221.843,144.856 L 199.482,161.014" style="fill:none;fill-rule:evenodd;stroke:#000000;stroke-width:1.0px;stroke-linecap:butt;stroke-linejoin:miter;stroke-opacity:1"/>
<path class="bond-21" d="M 221.843,144.856 L 219.031,117.412" style="fill:none;fill-rule:evenodd;stroke:#000000;stroke-width:1.0px;stroke-linecap:butt;stroke-linejoin:miter;stroke-opacity:1"/>
<path class="bond-29" d="M 221.617,147.041 L 223.358,146.447" style="fill:none;fill-rule:evenodd;stroke:#000000;stroke-width:1.0px;stroke-linecap:butt;stroke-linejoin:miter;stroke-opacity:1"/>
<path class="bond-29" d="M 221.392,149.225 L 224.873,148.037" style="fill:none;fill-rule:evenodd;stroke:#000000;stroke-width:1.0px;stroke-linecap:butt;stroke-linejoin:miter;stroke-opacity:1"/>
<path class="bond-29" d="M 221.166,151.41 L 226.387,149.627" style="fill:none;fill-rule:evenodd;stroke:#000000;stroke-width:1.0px;stroke-linecap:butt;stroke-linejoin:miter;stroke-opacity:1"/>
<path class="bond-22" d="M 174.309,149.728 L 199.482,161.014" style="fill:none;fill-rule:evenodd;stroke:#000000;stroke-width:1.0px;stroke-linecap:butt;stroke-linejoin:miter;stroke-opacity:1"/>
<path class="bond-23" d="M 174.309,149.728 L 151.948,165.885" style="fill:none;fill-rule:evenodd;stroke:#000000;stroke-width:1.0px;stroke-linecap:butt;stroke-linejoin:miter;stroke-opacity:1"/>
<path class="bond-30" d="M 174.309,149.728 L 168.434,142.953 L 165.58,147.675 Z" style="fill:#000000;fill-rule:evenodd;fill-opacity:1;stroke:#000000;stroke-width:1px;stroke-linecap:butt;stroke-linejoin:miter;stroke-opacity:1;"/>
<path class="bond-24" d="M 202.295,188.458 L 199.482,161.014" style="fill:none;fill-rule:evenodd;stroke:#000000;stroke-width:1.0px;stroke-linecap:butt;stroke-linejoin:miter;stroke-opacity:1"/>
<path class="bond-25" d="M 201.6,190.007 L 218.845,197.739" style="fill:none;fill-rule:evenodd;stroke:#000000;stroke-width:1.0px;stroke-linecap:butt;stroke-linejoin:miter;stroke-opacity:1"/>
<path class="bond-25" d="M 202.99,186.908 L 220.235,194.64" style="fill:none;fill-rule:evenodd;stroke:#000000;stroke-width:1.0px;stroke-linecap:butt;stroke-linejoin:miter;stroke-opacity:1"/>
<path class="bond-26" d="M 244.262,106.257 L 219.031,117.412" style="fill:none;fill-rule:evenodd;stroke:#000000;stroke-width:1.0px;stroke-linecap:butt;stroke-linejoin:miter;stroke-opacity:1"/>
<path class="bond-27" d="M 245.923,106.614 L 249.821,88.5051" style="fill:none;fill-rule:evenodd;stroke:#000000;stroke-width:1.0px;stroke-linecap:butt;stroke-linejoin:miter;stroke-opacity:1"/>
<path class="bond-27" d="M 242.602,105.899 L 246.5,87.7902" style="fill:none;fill-rule:evenodd;stroke:#000000;stroke-width:1.0px;stroke-linecap:butt;stroke-linejoin:miter;stroke-opacity:1"/>
<path class="bond-31" d="M 200.989,162.999 L 201.941,161.425" style="fill:none;fill-rule:evenodd;stroke:#000000;stroke-width:1.0px;stroke-linecap:butt;stroke-linejoin:miter;stroke-opacity:1"/>
<path class="bond-31" d="M 202.496,164.985 L 204.399,161.837" style="fill:none;fill-rule:evenodd;stroke:#000000;stroke-width:1.0px;stroke-linecap:butt;stroke-linejoin:miter;stroke-opacity:1"/>
<path class="bond-31" d="M 204.004,166.97 L 206.858,162.248" style="fill:none;fill-rule:evenodd;stroke:#000000;stroke-width:1.0px;stroke-linecap:butt;stroke-linejoin:miter;stroke-opacity:1"/>
<path class="atom-21" d="M 50.3796 175.668 Q 50.3796 172.268, 52.0596 170.368 Q 53.7396 168.468, 56.8796 168.468 Q 60.0196 168.468, 61.6996 170.368 Q 63.3796 172.268, 63.3796 175.668 Q 63.3796 179.108, 61.6796 181.068 Q 59.9796 183.008, 56.8796 183.008 Q 53.7596 183.008, 52.0596 181.068 Q 50.3796 179.128, 50.3796 175.668 M 56.8796 181.408 Q 59.0396 181.408, 60.1996 179.968 Q 61.3796 178.508, 61.3796 175.668 Q 61.3796 172.888, 60.1996 171.488 Q 59.0396 170.068, 56.8796 170.068 Q 54.7196 170.068, 53.5396 171.468 Q 52.3796 172.868, 52.3796 175.668 Q 52.3796 178.528, 53.5396 179.968 Q 54.7196 181.408, 56.8796 181.408 " fill="#000000"/>
<path class="atom-22" d="M 220.968 199.784 Q 220.968 196.384, 222.648 194.484 Q 224.328 192.584, 227.468 192.584 Q 230.608 192.584, 232.288 194.484 Q 233.968 196.384, 233.968 199.784 Q 233.968 203.224, 232.268 205.184 Q 230.568 207.124, 227.468 207.124 Q 224.348 207.124, 222.648 205.184 Q 220.968 203.244, 220.968 199.784 M 227.468 205.524 Q 229.628 205.524, 230.788 204.084 Q 231.968 202.624, 231.968 199.784 Q 231.968 197.004, 230.788 195.604 Q 229.628 194.184, 227.468 194.184 Q 225.308 194.184, 224.128 195.584 Q 222.968 196.984, 222.968 199.784 Q 222.968 202.644, 224.128 204.084 Q 225.308 205.524, 227.468 205.524 " fill="#000000"/>
<path class="atom-23" d="M 243.568 79.3269 Q 243.568 75.9269, 245.248 74.0269 Q 246.928 72.1269, 250.068 72.1269 Q 253.208 72.1269, 254.888 74.0269 Q 256.568 75.9269, 256.568 79.3269 Q 256.568 82.7669, 254.868 84.7269 Q 253.168 86.6669, 250.068 86.6669 Q 246.948 86.6669, 245.248 84.7269 Q 243.568 82.7869, 243.568 79.3269 M 250.068 85.0669 Q 252.228 85.0669, 253.388 83.6269 Q 254.568 82.1669, 254.568 79.3269 Q 254.568 76.5469, 253.388 75.1469 Q 252.228 73.7269, 250.068 73.7269 Q 247.908 73.7269, 246.728 75.1269 Q 245.568 76.5269, 245.568 79.3269 Q 245.568 82.1869, 246.728 83.6269 Q 247.908 85.0669, 250.068 85.0669 " fill="#000000"/>
<path class="atom-24" d="M 78.3655 214.398 Q 78.3655 210.998, 80.0455 209.098 Q 81.7255 207.198, 84.8655 207.198 Q 88.0055 207.198, 89.6855 209.098 Q 91.3655 210.998, 91.3655 214.398 Q 91.3655 217.838, 89.6655 219.798 Q 87.9655 221.738, 84.8655 221.738 Q 81.7455 221.738, 80.0455 219.798 Q 78.3655 217.858, 78.3655 214.398 M 84.8655 220.138 Q 87.0255 220.138, 88.1855 218.698 Q 89.3655 217.238, 89.3655 214.398 Q 89.3655 211.618, 88.1855 210.218 Q 87.0255 208.798, 84.8655 208.798 Q 82.7055 208.798, 81.5255 210.198 Q 80.3655 211.598, 80.3655 214.398 Q 80.3655 217.258, 81.5255 218.698 Q 82.7055 220.138, 84.8655 220.138 " fill="#000000"/>
<path class="atom-25" d="M 152.033 213.693 L 153.953 213.693 L 153.953 219.713 L 161.193 219.713 L 161.193 213.693 L 163.113 213.693 L 163.113 227.853 L 161.193 227.853 L 161.193 221.313 L 153.953 221.313 L 153.953 227.853 L 152.033 227.853 L 152.033 213.693 " fill="#000000"/>
<path class="atom-26" d="M 221.041 151.651 L 222.961 151.651 L 222.961 157.671 L 230.201 157.671 L 230.201 151.651 L 232.121 151.651 L 232.121 165.811 L 230.201 165.811 L 230.201 159.271 L 222.961 159.271 L 222.961 165.811 L 221.041 165.811 L 221.041 151.651 " fill="#000000"/>
<path class="atom-27" d="M 154.828 134.221 L 156.748 134.221 L 156.748 140.241 L 163.988 140.241 L 163.988 134.221 L 165.908 134.221 L 165.908 148.381 L 163.988 148.381 L 163.988 141.841 L 156.748 141.841 L 156.748 148.381 L 154.828 148.381 L 154.828 134.221 " fill="#000000"/>
<path class="atom-28" d="M 206.49 161.518 L 208.41 161.518 L 208.41 167.538 L 215.65 167.538 L 215.65 161.518 L 217.57 161.518 L 217.57 175.678 L 215.65 175.678 L 215.65 169.138 L 208.41 169.138 L 208.41 175.678 L 206.49 175.678 L 206.49 161.518 " fill="#000000"/>
</svg>