<svg xmlns="http://www.w3.org/2000/svg" xmlns:rdkit="http://www.rdkit.org/xml" xmlns:xlink="http://www.w3.org/1999/xlink" version="1.1" baseProfile="full" xml:space="preserve" width="300px" height="300px" viewBox="0 0 300 300">
<!-- END OF HEADER -->
<rect style="opacity:1.0;fill:#FFFFFF;stroke:none" width="300" height="300" x="0" y="0"> </rect>
<path class="bond-0" d="M 264.203,139.639 L 240.292,138.241" style="fill:none;fill-rule:evenodd;stroke:#000000;stroke-width:1.0px;stroke-linecap:butt;stroke-linejoin:miter;stroke-opacity:1"/>
<path class="bond-1" d="M 122.766,158.376 L 91.6849,156.558" style="fill:none;fill-rule:evenodd;stroke:#000000;stroke-width:1.0px;stroke-linecap:butt;stroke-linejoin:miter;stroke-opacity:1"/>
<path class="bond-1" d="M 118.44,152.347 L 96.6837,151.074" style="fill:none;fill-rule:evenodd;stroke:#000000;stroke-width:1.0px;stroke-linecap:butt;stroke-linejoin:miter;stroke-opacity:1"/>
<path class="bond-2" d="M 122.766,158.376 L 139.88,132.368" style="fill:none;fill-rule:evenodd;stroke:#000000;stroke-width:1.0px;stroke-linecap:butt;stroke-linejoin:miter;stroke-opacity:1"/>
<path class="bond-3" d="M 125.914,104.543 L 94.8333,102.725" style="fill:none;fill-rule:evenodd;stroke:#000000;stroke-width:1.0px;stroke-linecap:butt;stroke-linejoin:miter;stroke-opacity:1"/>
<path class="bond-4" d="M 125.914,104.543 L 139.88,132.368" style="fill:none;fill-rule:evenodd;stroke:#000000;stroke-width:1.0px;stroke-linecap:butt;stroke-linejoin:miter;stroke-opacity:1"/>
<path class="bond-4" d="M 122.855,111.303 L 132.632,130.781" style="fill:none;fill-rule:evenodd;stroke:#000000;stroke-width:1.0px;stroke-linecap:butt;stroke-linejoin:miter;stroke-opacity:1"/>
<path class="bond-5" d="M 91.6849,156.558 L 77.7187,128.733" style="fill:none;fill-rule:evenodd;stroke:#000000;stroke-width:1.0px;stroke-linecap:butt;stroke-linejoin:miter;stroke-opacity:1"/>
<path class="bond-6" d="M 94.8333,102.725 L 77.7187,128.733" style="fill:none;fill-rule:evenodd;stroke:#000000;stroke-width:1.0px;stroke-linecap:butt;stroke-linejoin:miter;stroke-opacity:1"/>
<path class="bond-6" d="M 97.0831,109.796 L 85.1029,128.001" style="fill:none;fill-rule:evenodd;stroke:#000000;stroke-width:1.0px;stroke-linecap:butt;stroke-linejoin:miter;stroke-opacity:1"/>
<path class="bond-7" d="M 216.008,163.829 L 184.927,162.011" style="fill:none;fill-rule:evenodd;stroke:#000000;stroke-width:1.0px;stroke-linecap:butt;stroke-linejoin:miter;stroke-opacity:1"/>
<path class="bond-7" d="M 211.682,157.8 L 189.926,156.528" style="fill:none;fill-rule:evenodd;stroke:#000000;stroke-width:1.0px;stroke-linecap:butt;stroke-linejoin:miter;stroke-opacity:1"/>
<path class="bond-8" d="M 216.008,163.829 L 227.389,146.535" style="fill:none;fill-rule:evenodd;stroke:#000000;stroke-width:1.0px;stroke-linecap:butt;stroke-linejoin:miter;stroke-opacity:1"/>
<path class="bond-9" d="M 139.88,132.368 L 170.961,134.186" style="fill:none;fill-rule:evenodd;stroke:#000000;stroke-width:1.0px;stroke-linecap:butt;stroke-linejoin:miter;stroke-opacity:1"/>
<path class="bond-10" d="M 77.7187,128.733 L 51.3881,127.193" style="fill:none;fill-rule:evenodd;stroke:#000000;stroke-width:1.0px;stroke-linecap:butt;stroke-linejoin:miter;stroke-opacity:1"/>
<path class="bond-11" d="M 184.927,162.011 L 170.961,134.186" style="fill:none;fill-rule:evenodd;stroke:#000000;stroke-width:1.0px;stroke-linecap:butt;stroke-linejoin:miter;stroke-opacity:1"/>
<path class="bond-12" d="M 184.927,162.011 L 167.812,188.019" style="fill:none;fill-rule:evenodd;stroke:#000000;stroke-width:1.0px;stroke-linecap:butt;stroke-linejoin:miter;stroke-opacity:1"/>
<path class="bond-13" d="M 170.961,134.186 L 182.342,116.891" style="fill:none;fill-rule:evenodd;stroke:#000000;stroke-width:1.0px;stroke-linecap:butt;stroke-linejoin:miter;stroke-opacity:1"/>
<path class="bond-13" d="M 177.485,134.762 L 185.451,122.655" style="fill:none;fill-rule:evenodd;stroke:#000000;stroke-width:1.0px;stroke-linecap:butt;stroke-linejoin:miter;stroke-opacity:1"/>
<path class="bond-14" d="M 165.236,189.313 L 174.758,208.285" style="fill:none;fill-rule:evenodd;stroke:#000000;stroke-width:1.0px;stroke-linecap:butt;stroke-linejoin:miter;stroke-opacity:1"/>
<path class="bond-14" d="M 170.389,186.726 L 179.912,205.698" style="fill:none;fill-rule:evenodd;stroke:#000000;stroke-width:1.0px;stroke-linecap:butt;stroke-linejoin:miter;stroke-opacity:1"/>
<path class="bond-15" d="M 167.812,188.019 L 145.032,186.687" style="fill:none;fill-rule:evenodd;stroke:#000000;stroke-width:1.0px;stroke-linecap:butt;stroke-linejoin:miter;stroke-opacity:1"/>
<path class="bond-16" d="M 219.156,109.996 L 195.246,108.597" style="fill:none;fill-rule:evenodd;stroke:#000000;stroke-width:1.0px;stroke-linecap:butt;stroke-linejoin:miter;stroke-opacity:1"/>
<path class="bond-17" d="M 219.156,109.996 L 228.719,129.048" style="fill:none;fill-rule:evenodd;stroke:#000000;stroke-width:1.0px;stroke-linecap:butt;stroke-linejoin:miter;stroke-opacity:1"/>
<path class="bond-18" d="M 221.565,111.581 L 232.748,94.5863" style="fill:none;fill-rule:evenodd;stroke:#000000;stroke-width:1.0px;stroke-linecap:butt;stroke-linejoin:miter;stroke-opacity:1"/>
<path class="bond-18" d="M 216.748,108.411 L 227.931,91.4164" style="fill:none;fill-rule:evenodd;stroke:#000000;stroke-width:1.0px;stroke-linecap:butt;stroke-linejoin:miter;stroke-opacity:1"/>
<path class="atom-12" d="M 39.248 126.555 Q 40.608 126.935, 41.288 127.775 Q 41.988 128.595, 41.988 129.815 Q 41.988 131.775, 40.728 132.895 Q 39.488 133.995, 37.128 133.995 L 32.368 133.995 L 32.368 119.835 L 36.548 119.835 Q 38.968 119.835, 40.188 120.815 Q 41.408 121.795, 41.408 123.595 Q 41.408 125.735, 39.248 126.555 M 34.268 121.435 L 34.268 125.875 L 36.548 125.875 Q 37.948 125.875, 38.668 125.315 Q 39.408 124.735, 39.408 123.595 Q 39.408 121.435, 36.548 121.435 L 34.268 121.435 M 37.128 132.395 Q 38.508 132.395, 39.248 131.735 Q 39.988 131.075, 39.988 129.815 Q 39.988 128.655, 39.168 128.075 Q 38.368 127.475, 36.828 127.475 L 34.268 127.475 L 34.268 132.395 L 37.128 132.395 " fill="#000000"/>
<path class="atom-12" d="M 45.208 123.715 L 45.428 125.135 Q 46.508 123.535, 48.268 123.535 Q 48.828 123.535, 49.588 123.735 L 49.288 125.415 Q 48.428 125.215, 47.948 125.215 Q 47.108 125.215, 46.548 125.555 Q 46.008 125.875, 45.568 126.655 L 45.568 133.995 L 43.688 133.995 L 43.688 123.715 L 45.208 123.715 " fill="#000000"/>
<path class="atom-13" d="M 184.946 101.098 L 189.586 108.598 Q 190.046 109.338, 190.786 110.678 Q 191.526 112.018, 191.566 112.098 L 191.566 101.098 L 193.446 101.098 L 193.446 115.258 L 191.506 115.258 L 186.526 107.058 Q 185.946 106.098, 185.326 104.998 Q 184.726 103.898, 184.546 103.558 L 184.546 115.258 L 182.706 115.258 L 182.706 101.098 L 184.946 101.098 " fill="#000000"/>
<path class="atom-14" d="M 229.992 130.741 L 234.632 138.241 Q 235.092 138.981, 235.832 140.321 Q 236.572 141.661, 236.612 141.741 L 236.612 130.741 L 238.492 130.741 L 238.492 144.901 L 236.552 144.901 L 231.572 136.701 Q 230.992 135.741, 230.372 134.641 Q 229.772 133.541, 229.592 133.201 L 229.592 144.901 L 227.752 144.901 L 227.752 130.741 L 229.992 130.741 " fill="#000000"/>
<path class="atom-15" d="M 175.279 215.885 Q 175.279 212.485, 176.959 210.585 Q 178.639 208.685, 181.779 208.685 Q 184.919 208.685, 186.599 210.585 Q 188.279 212.485, 188.279 215.885 Q 188.279 219.325, 186.579 221.285 Q 184.879 223.225, 181.779 223.225 Q 178.659 223.225, 176.959 221.285 Q 175.279 219.345, 175.279 215.885 M 181.779 221.625 Q 183.939 221.625, 185.099 220.185 Q 186.279 218.725, 186.279 215.885 Q 186.279 213.105, 185.099 211.705 Q 183.939 210.285, 181.779 210.285 Q 179.619 210.285, 178.439 211.685 Q 177.279 213.085, 177.279 215.885 Q 177.279 218.745, 178.439 220.185 Q 179.619 221.625, 181.779 221.625 " fill="#000000"/>
<path class="atom-16" d="M 118.152 179.202 L 120.072 179.202 L 120.072 185.222 L 127.312 185.222 L 127.312 179.202 L 129.232 179.202 L 129.232 193.362 L 127.312 193.362 L 127.312 186.822 L 120.072 186.822 L 120.072 193.362 L 118.152 193.362 L 118.152 179.202 " fill="#000000"/>
<path class="atom-16" d="M 130.232 186.242 Q 130.232 182.842, 131.912 180.942 Q 133.592 179.042, 136.732 179.042 Q 139.872 179.042, 141.552 180.942 Q 143.232 182.842, 143.232 186.242 Q 143.232 189.682, 141.532 191.642 Q 139.832 193.582, 136.732 193.582 Q 133.612 193.582, 131.912 191.642 Q 130.232 189.702, 130.232 186.242 M 136.732 191.982 Q 138.892 191.982, 140.052 190.542 Q 141.232 189.082, 141.232 186.242 Q 141.232 183.462, 140.052 182.062 Q 138.892 180.642, 136.732 180.642 Q 134.572 180.642, 133.392 182.042 Q 132.232 183.442, 132.232 186.242 Q 132.232 189.102, 133.392 190.542 Q 134.572 191.982, 136.732 191.982 " fill="#000000"/>
<path class="atom-17" d="M 229.771 84.028 Q 229.771 80.628, 231.451 78.728 Q 233.131 76.828, 236.271 76.828 Q 239.411 76.828, 241.091 78.728 Q 242.771 80.628, 242.771 84.028 Q 242.771 87.468, 241.071 89.428 Q 239.371 91.368, 236.271 91.368 Q 233.151 91.368, 231.451 89.428 Q 229.771 87.488, 229.771 84.028 M 236.271 89.768 Q 238.431 89.768, 239.591 88.328 Q 240.771 86.868, 240.771 84.028 Q 240.771 81.248, 239.591 79.848 Q 238.431 78.428, 236.271 78.428 Q 234.111 78.428, 232.931 79.828 Q 231.771 81.228, 231.771 84.028 Q 231.771 86.888, 232.931 88.328 Q 234.111 89.768, 236.271 89.768 " fill="#000000"/>
<metadata>
<rdkit:mol xmlns:rdkit="http://www.rdkit.org/xml" version="0.9">
<rdkit:atom idx="1" atom-smiles="[CH3]" drawing-x="264.203" drawing-y="139.639" x="4.97094" y="0.0707351" z="0"/>
<rdkit:atom idx="2" atom-smiles="[cH]" drawing-x="122.766" drawing-y="158.376" x="-1.84339" y="-0.831987" z="0"/>
<rdkit:atom idx="3" atom-smiles="[cH]" drawing-x="125.914" drawing-y="104.543" x="-1.6917" y="1.76166" z="0"/>
<rdkit:atom idx="4" atom-smiles="[cH]" drawing-x="91.6849" drawing-y="156.558" x="-3.34083" y="-0.744409" z="0"/>
<rdkit:atom idx="5" atom-smiles="[cH]" drawing-x="94.8333" drawing-y="102.725" x="-3.18914" y="1.84924" z="0"/>
<rdkit:atom idx="6" atom-smiles="[cH]" drawing-x="216.008" drawing-y="163.829" x="2.64894" y="-1.09472" z="0"/>
<rdkit:atom idx="7" atom-smiles="[c]" drawing-x="139.88" drawing-y="132.368" x="-1.01882" y="0.421046" z="0"/>
<rdkit:atom idx="8" atom-smiles="[c]" drawing-x="77.7187" drawing-y="128.733" x="-4.0137" y="0.596202" z="0"/>
<rdkit:atom idx="9" atom-smiles="[c]" drawing-x="184.927" drawing-y="162.011" x="1.1515" y="-1.00714" z="0"/>
<rdkit:atom idx="10" atom-smiles="[c]" drawing-x="170.961" drawing-y="134.186" x="0.478619" y="0.333468" z="0"/>
<rdkit:atom idx="11" atom-smiles="[C]" drawing-x="167.812" drawing-y="188.019" x="0.32693" y="-2.26018" z="0"/>
<rdkit:atom idx="12" atom-smiles="[c]" drawing-x="219.156" drawing-y="109.996" x="2.80063" y="1.49892" z="0"/>
<rdkit:atom idx="13" atom-smiles="[Br]" drawing-x="46.638" drawing-y="126.915" x="-5.51115" y="0.68378" z="0"/>
<rdkit:atom idx="14" atom-smiles="[n]" drawing-x="188.076" drawing-y="108.178" x="1.30318" y="1.5865" z="0"/>
<rdkit:atom idx="15" atom-smiles="[n]" drawing-x="233.122" drawing-y="137.821" x="3.4735" y="0.158313" z="0"/>
<rdkit:atom idx="16" atom-smiles="[O]" drawing-x="181.779" drawing-y="215.845" x="0.999806" y="-3.60079" z="0"/>
<rdkit:atom idx="17" atom-smiles="[OH]" drawing-x="136.732" drawing-y="186.202" x="-1.17051" y="-2.1726" z="0"/>
<rdkit:atom idx="18" atom-smiles="[O]" drawing-x="236.271" drawing-y="83.988" x="3.62519" y="2.75196" z="0"/>
<rdkit:bond idx="1" begin-atom-idx="1" end-atom-idx="15" bond-smiles="-"/>
<rdkit:bond idx="2" begin-atom-idx="2" end-atom-idx="4" bond-smiles="="/>
<rdkit:bond idx="3" begin-atom-idx="2" end-atom-idx="7" bond-smiles="-"/>
<rdkit:bond idx="4" begin-atom-idx="3" end-atom-idx="5" bond-smiles="-"/>
<rdkit:bond idx="5" begin-atom-idx="3" end-atom-idx="7" bond-smiles="="/>
<rdkit:bond idx="6" begin-atom-idx="4" end-atom-idx="8" bond-smiles="-"/>
<rdkit:bond idx="7" begin-atom-idx="5" end-atom-idx="8" bond-smiles="="/>
<rdkit:bond idx="8" begin-atom-idx="6" end-atom-idx="9" bond-smiles="="/>
<rdkit:bond idx="9" begin-atom-idx="6" end-atom-idx="15" bond-smiles="-"/>
<rdkit:bond idx="10" begin-atom-idx="7" end-atom-idx="10" bond-smiles="-"/>
<rdkit:bond idx="11" begin-atom-idx="8" end-atom-idx="13" bond-smiles="-"/>
<rdkit:bond idx="12" begin-atom-idx="9" end-atom-idx="10" bond-smiles="-"/>
<rdkit:bond idx="13" begin-atom-idx="9" end-atom-idx="11" bond-smiles="-"/>
<rdkit:bond idx="14" begin-atom-idx="10" end-atom-idx="14" bond-smiles="="/>
<rdkit:bond idx="15" begin-atom-idx="11" end-atom-idx="16" bond-smiles="="/>
<rdkit:bond idx="16" begin-atom-idx="11" end-atom-idx="17" bond-smiles="-"/>
<rdkit:bond idx="17" begin-atom-idx="12" end-atom-idx="14" bond-smiles="-"/>
<rdkit:bond idx="18" begin-atom-idx="12" end-atom-idx="15" bond-smiles="-"/>
<rdkit:bond idx="19" begin-atom-idx="12" end-atom-idx="18" bond-smiles="="/>
</rdkit:mol></metadata>
</svg>